HIERARCHY
ROOT Hips
{
	OFFSET 8.91173 92.52490 -21.95620
	CHANNELS 6 Xposition Yposition Zposition Zrotation Xrotation Yrotation
	JOINT Spine
	{
		OFFSET 0.00000 14.09320 -1.51142
		CHANNELS 3 Zrotation Xrotation Yrotation
		JOINT Spine1
		{
			OFFSET 0.00000 8.69660 0.00000
			CHANNELS 3 Zrotation Xrotation Yrotation
			JOINT Spine2
			{
				OFFSET 0.00000 8.69660 0.00000
				CHANNELS 3 Zrotation Xrotation Yrotation
				JOINT Spine3
				{
					OFFSET 0.00000 8.69660 0.00000
					CHANNELS 3 Zrotation Xrotation Yrotation
					JOINT Neck
					{
						OFFSET 0.00000 11.18130 1.11813
						CHANNELS 3 Zrotation Xrotation Yrotation
						JOINT Neck1
						{
							OFFSET 0.00000 5.70631 0.00000
							CHANNELS 3 Zrotation Xrotation Yrotation
							JOINT Head
							{
								OFFSET 0.00000 5.70631 0.00000
								CHANNELS 3 Zrotation Xrotation Yrotation
								End site
								{
									OFFSET 0.00000 9.71257 0.00000
								}
							}
						}
					}
					JOINT RightShoulder
					{
						OFFSET 0.00000 7.98668 5.19711
						CHANNELS 3 Zrotation Xrotation Yrotation
						JOINT RightArm
						{
							OFFSET 0.00000 18.31580 0.00000
							CHANNELS 3 Zrotation Xrotation Yrotation
							JOINT RightForeArm
							{
								OFFSET 0.00000 28.87420 0.00000
								CHANNELS 3 Zrotation Xrotation Yrotation
								JOINT RightHand
								{
									OFFSET 0.00000 23.87720 0.00000
									CHANNELS 3 Zrotation Xrotation Yrotation
									JOINT RightHandThumb1
									{
										OFFSET -2.41094 4.67063 3.47303
										CHANNELS 3 Zrotation Xrotation Yrotation
										JOINT RightHandThumb2
										{
											OFFSET 0.00000 3.95207 0.00000
											CHANNELS 3 Zrotation Xrotation Yrotation
											JOINT RightHandThumb3
											{
												OFFSET 0.00000 2.15568 0.00000
												CHANNELS 3 Zrotation Xrotation Yrotation
												End site
												{
													OFFSET 0.00000 1.91616 0.00000
												}
											}
										}
									}
									JOINT RightHandIndex1
									{
										OFFSET 0.00000 12.45500 2.51496
										CHANNELS 3 Zrotation Xrotation Yrotation
										JOINT RightHandIndex2
										{
											OFFSET 0.00000 4.79039 0.00000
											CHANNELS 3 Zrotation Xrotation Yrotation
											JOINT RightHandIndex3
											{
												OFFSET 0.00000 2.63472 0.00000
												CHANNELS 3 Zrotation Xrotation Yrotation
												End site
												{
													OFFSET 0.00000 1.91616 0.00000
												}
											}
										}
									}
									JOINT RightHandMiddle1
									{
										OFFSET 0.00000 12.45500 -0.07984
										CHANNELS 3 Zrotation Xrotation Yrotation
										JOINT RightHandMiddle2
										{
											OFFSET 0.00000 5.38919 0.00000
											CHANNELS 3 Zrotation Xrotation Yrotation
											JOINT RightHandMiddle3
											{
												OFFSET 0.00000 3.11376 0.00000
												CHANNELS 3 Zrotation Xrotation Yrotation
												End site
												{
													OFFSET 0.00000 2.03592 0.00000
												}
											}
										}
									}
									JOINT RightHandRing1
									{
										OFFSET 0.00000 11.07780 -2.67464
										CHANNELS 3 Zrotation Xrotation Yrotation
										JOINT RightHandRing2
										{
											OFFSET 0.00000 4.91015 0.00000
											CHANNELS 3 Zrotation Xrotation Yrotation
											JOINT RightHandRing3
											{
												OFFSET 0.00000 3.11376 0.00000
												CHANNELS 3 Zrotation Xrotation Yrotation
												End site
												{
													OFFSET 0.00000 2.03592 0.00000
												}
											}
										}
									}
									JOINT RightHandPinky1
									{
										OFFSET 0.00000 9.70055 -5.26943
										CHANNELS 3 Zrotation Xrotation Yrotation
										JOINT RightHandPinky2
										{
											OFFSET 0.00000 3.95207 0.00000
											CHANNELS 3 Zrotation Xrotation Yrotation
											JOINT RightHandPinky3
											{
												OFFSET 0.00000 2.15568 0.00000
												CHANNELS 3 Zrotation Xrotation Yrotation
												End site
												{
													OFFSET 0.00000 1.91616 0.00000
												}
											}
										}
									}
								}
							}
						}
					}
					JOINT LeftShoulder
					{
						OFFSET 0.00000 7.98668 5.19711
						CHANNELS 3 Zrotation Xrotation Yrotation
						JOINT LeftArm
						{
							OFFSET 0.00000 18.31580 0.00000
							CHANNELS 3 Zrotation Xrotation Yrotation
							JOINT LeftForeArm
							{
								OFFSET 0.00000 28.87420 0.00000
								CHANNELS 3 Zrotation Xrotation Yrotation
								JOINT LeftHand
								{
									OFFSET 0.00000 23.87720 0.00000
									CHANNELS 3 Zrotation Xrotation Yrotation
									JOINT LeftHandThumb1
									{
										OFFSET 2.41094 4.67063 3.47303
										CHANNELS 3 Zrotation Xrotation Yrotation
										JOINT LeftHandThumb2
										{
											OFFSET 0.00000 3.95207 0.00000
											CHANNELS 3 Zrotation Xrotation Yrotation
											JOINT LeftHandThumb3
											{
												OFFSET 0.00000 2.15568 0.00000
												CHANNELS 3 Zrotation Xrotation Yrotation
												End site
												{
													OFFSET 0.00000 1.60000 0.00000
												}
											}
										}
									}
									JOINT LeftHandIndex1
									{
										OFFSET 0.00000 12.45500 2.51496
										CHANNELS 3 Zrotation Xrotation Yrotation
										JOINT LeftHandIndex2
										{
											OFFSET 0.00000 4.79039 0.00000
											CHANNELS 3 Zrotation Xrotation Yrotation
											JOINT LeftHandIndex3
											{
												OFFSET 0.00000 2.63472 0.00000
												CHANNELS 3 Zrotation Xrotation Yrotation
												End site
												{
													OFFSET 0.00000 1.91616 0.00000
												}
											}
										}
									}
									JOINT LeftHandMiddle1
									{
										OFFSET 0.00000 12.45500 -0.07984
										CHANNELS 3 Zrotation Xrotation Yrotation
										JOINT LeftHandMiddle2
										{
											OFFSET 0.00000 5.38919 0.00000
											CHANNELS 3 Zrotation Xrotation Yrotation
											JOINT LeftHandMiddle3
											{
												OFFSET 0.00000 3.11376 0.00000
												CHANNELS 3 Zrotation Xrotation Yrotation
												End site
												{
													OFFSET 0.00000 2.03592 0.00000
												}
											}
										}
									}
									JOINT LeftHandRing1
									{
										OFFSET 0.00000 11.07780 -2.67464
										CHANNELS 3 Zrotation Xrotation Yrotation
										JOINT LeftHandRing2
										{
											OFFSET 0.00000 4.91015 0.00000
											CHANNELS 3 Zrotation Xrotation Yrotation
											JOINT LeftHandRing3
											{
												OFFSET 0.00000 3.11376 0.00000
												CHANNELS 3 Zrotation Xrotation Yrotation
												End site
												{
													OFFSET 0.00000 2.03592 0.00000
												}
											}
										}
									}
									JOINT LeftHandPinky1
									{
										OFFSET 0.00000 9.70055 -5.26943
										CHANNELS 3 Zrotation Xrotation Yrotation
										JOINT LeftHandPinky2
										{
											OFFSET 0.00000 3.95207 0.00000
											CHANNELS 3 Zrotation Xrotation Yrotation
											JOINT LeftHandPinky3
											{
												OFFSET 0.00000 2.15568 0.00000
												CHANNELS 3 Zrotation Xrotation Yrotation
												End site
												{
													OFFSET 0.00000 1.91616 0.00000
												}
											}
										}
									}
								}
							}
						}
					}
				}
			}
		}
	}
	JOINT RightUpLeg
	{
		OFFSET -10.06560 0.00000 0.00000
		CHANNELS 3 Zrotation Xrotation Yrotation
		JOINT RightLeg
		{
			OFFSET 0.00000 -42.98740 0.00000
			CHANNELS 3 Zrotation Xrotation Yrotation
			JOINT RightFoot
			{
				OFFSET 0.00000 -44.62500 0.00000
				CHANNELS 3 Zrotation Xrotation Yrotation
				JOINT RightForeFoot
				{
					OFFSET 0.00000 -3.74821 0.00000
					CHANNELS 3 Zrotation Xrotation Yrotation
					JOINT RightToeBase
					{
						OFFSET 0.00000 0.00000 14.67920
						CHANNELS 3 Zrotation Xrotation Yrotation
						End site
						{
							OFFSET 0.00000 0.00000 10.36040
						}
					}
				}
			}
		}
	}
	JOINT LeftUpLeg
	{
		OFFSET 10.06560 0.00000 0.00000
		CHANNELS 3 Zrotation Xrotation Yrotation
		JOINT LeftLeg
		{
			OFFSET 0.00000 -42.98740 0.00000
			CHANNELS 3 Zrotation Xrotation Yrotation
			JOINT LeftFoot
			{
				OFFSET 0.00000 -44.62500 0.00000
				CHANNELS 3 Zrotation Xrotation Yrotation
				JOINT LeftForeFoot
				{
					OFFSET 0.00000 -3.74821 0.00000
					CHANNELS 3 Zrotation Xrotation Yrotation
					JOINT LeftToeBase
					{
						OFFSET 0.00000 0.00000 14.67920
						CHANNELS 3 Zrotation Xrotation Yrotation
						End site
						{
							OFFSET 0.00000 0.00000 10.67280
						}
					}
				}
			}
		}
	}
}
MOTION
Frames: 4
Frame Time: 0.25
25.2564 89.2616 -61.7344 -1.87901 -1.01867 -168.379 -2.08293 -1.95127 -0.414546 -1.08927 3.78971 0.35281 -1.44984 -2.39352 -2.06448 1.43902 1.82862 -1.32474 2.98591 18.0409 -2.44511 1.52833 -2.06966 -6.10268 2.64917 -18.0301 -0.608197 90 0 0 75.6822 17.5485 -8.25545 180.0 81.0878 -151.975 22.7307 -4.36439 1.0041e-05 20.1783 -7.54109 2.7612 9.54166e-15 1.59028e-15 -0.0 6.36111e-15 -7.95139e-16 7.95139e-16 -45.348 6.36111e-15 -1.03368e-14 -6.62086e-32 -3.18055e-15 -1.19271e-15 0.0 0.0 -7.95139e-16 -52.01 4.77083e-15 -9.54166e-15 3.18055e-15 0.0 7.95139e-16 3.18055e-15 1.59028e-15 -1.59028e-15 -32.2813 3.18055e-15 -6.4605e-15 -2.98177e-16 -6.36111e-15 -4.96962e-16 9.93923e-17 -6.36111e-15 -5.46658e-16 108.548 2.06736e-14 9.54166e-15 -3.18055e-15 -3.18055e-15 -4.77083e-15 6.36111e-15 0.0 -0.0 -90 0 0 -79.8858 26.8747 38.6889 180.0 82.765 -179.796 -10.8768 -8.2309 -1.85521e-06 -41.8196 -11.12 -9.79047 -3.18055e-15 -5.96354e-16 -0.0 -3.18055e-15 -1.78906e-15 7.95139e-16 -44.6818 3.18055e-15 -3.18055e-15 3.18055e-15 1.59028e-15 3.18055e-15 3.18055e-15 -4.77083e-15 -3.18055e-15 -100.132 1.11319e-14 -7.95139e-15 0.0 3.18055e-15 -0.0 -9.54166e-15 -6.36111e-15 7.95139e-15 -86.071 7.15625e-15 -3.18055e-15 -3.18055e-15 -4.77083e-15 3.18055e-15 -1.32417e-31 -2.38542e-15 -3.18055e-15 -104.181 1.27222e-14 -6.36111e-15 -3.18055e-15 0.0 1.59028e-15 3.18055e-15 1.59028e-15 1.59028e-15 -0.0712726 -8.325 -6.06503 1.05402e-15 17.4065 -1.08329e-14 -2.38753 -21.1487 -3.83348 -2.48481e-16 1.59028e-15 -0.0 -1.49089e-16 8.89077 -0.0 4.33368 -7.06434 9.77641 2.32156e-15 32.8618 -1.89323e-14 -5.19942 -18.5616 -6.8199 -3.97569e-16 1.59028e-15 -0.0 -7.43443e-16 -6.20631 -3.19931e-15
25.7842 88.9671 -62.3974 -0.893023 -0.198962 -174.426 -0.600678 -2.70663 -0.500328 -0.873747 3.45126 0.212214 -0.915732 -1.53432 -4.21158 2.184 1.22073 -1.72735 1.9016 9.25557 -2.65762 0.566257 -4.12322 -4.64657 1.37015 -19.9205 -0.425985 90 0 0 76.1636 1.65332 -15.1283 -0.00564527 86.6292 32.4603 21.1005 -9.25505 0.00024741 20.0491 -4.30007 1.56777 -3.18055e-15 -3.18055e-15 1.59028e-15 0.0 3.18055e-15 -0.0 -49.6189 4.77083e-15 -1.43125e-14 -0.0 -6.36111e-15 -0.0 -3.18055e-15 0.0 -0.0 -55.7412 6.36111e-15 -1.74931e-14 -3.18055e-15 -3.18055e-15 1.59028e-15 0.0 0.0 -0.0 -38.1759 6.36111e-15 -1.51076e-14 3.18055e-15 1.59028e-15 -0.0 3.18055e-15 3.18055e-15 -0.0 114.334 2.38542e-14 7.95139e-15 3.18055e-15 0.0 -0.0 -4.41391e-32 1.59028e-15 1.59028e-15 -90 0 0 -80.9636 18.561 42.1913 179.989 86.4188 175.263 -14.2877 -13.2435 0.000365996 -44.2716 -14.3246 -13.5608 3.97569e-16 -4.47266e-16 1.59028e-15 -3.97569e-16 -1.00883e-14 3.18055e-15 -31.8681 -5.76476e-15 2.38542e-15 1.59028e-15 -5.56597e-15 1.59028e-15 8.27607e-33 5.96354e-16 -7.95139e-16 -93.7601 -9.54166e-15 -3.97569e-15 -3.18055e-15 3.18055e-15 5.56597e-15 9.54166e-15 7.95139e-16 -7.95139e-16 -86.0894 -1.11319e-14 -0.0 3.18055e-15 -2.38542e-15 -7.95139e-16 -1.98626e-31 -7.15625e-15 -1.59028e-15 -108.104 -1.03368e-14 -3.57812e-15 -3.18055e-15 -5.56597e-15 -1.19271e-14 -3.18055e-15 -7.95139e-16 -5.1684e-15 2.06934 -7.80604 -1.44907 -3.00663e-16 17.3377 -8.32985e-15 -2.38497 -21.2261 -2.36707 -4.96962e-17 3.18055e-15 -3.97569e-16 3.6446e-17 8.99685 4.02522e-16 7.20578 -6.43251 18.2765 2.3126e-15 36.4478 -7.90791e-15 -7.22521 -18.8501 -6.18011 -3.97569e-16 -7.95139e-16 -3.18055e-15 4.84347e-16 -8.65869 3.21722e-15
22.9569 89.0995 -60.5917 -1.93432 1.12598 175.826 0.588768 -2.23227 -0.672784 -0.399976 3.53689 0.0510529 -0.278645 -1.50767 -4.76479 3.19019 1.06123 -1.76776 1.88269 9.54453 -1.1536 0.175922 -3.39927 -0.717954 0.20322 -19.1694 -0.0937056 90 0 0 73.0112 3.38013 -22.8447 9.00147e-06 86.4417 26.7648 14.0039 -11.114 -6.74017e-07 23.3366 6.70969 -2.88568 6.36111e-15 0.0 -1.59028e-15 -3.18055e-15 1.59028e-15 -2.38542e-15 -38.1443 -7.95139e-15 7.95139e-15 -4.41391e-32 -1.59028e-15 -1.59028e-15 -8.82781e-32 -3.18055e-15 -1.59028e-15 -39.0327 -9.54166e-15 6.36111e-15 3.18055e-15 1.59028e-15 -1.59028e-15 8.82781e-32 1.59028e-15 -3.18055e-15 -22.0351 -6.36111e-15 3.97569e-15 -1.59028e-15 -3.18055e-15 7.95139e-16 1.59028e-15 -3.18055e-15 -0.0 18.1017 -6.36111e-15 -1.59028e-15 3.18055e-15 -6.36111e-15 -7.95139e-16 3.18055e-15 0.0 -2.38542e-15 -90 0 0 -83.3981 20.403 41.1259 180.0 87.1259 174.504 -12.7089 -13.4683 -7.18573e-09 -43.8907 -12.5336 -11.7921 -7.95139e-16 -1.32192e-14 -1.98785e-16 -7.95139e-16 -6.80837e-15 1.98785e-16 -25.167 3.97569e-16 -4.77083e-15 6.62086e-32 -1.19271e-15 3.18055e-15 -0.0 -1.19271e-15 -0.0 -96.7423 -4.77083e-15 -1.03368e-14 -6.36111e-15 -1.59028e-15 -1.59028e-15 -3.18055e-15 -3.18055e-15 7.95139e-16 -91.3717 -9.54166e-15 -7.95139e-15 3.18055e-15 -3.18055e-15 -0.0 3.18055e-15 -1.59028e-15 -0.0 -114.102 -1.59028e-15 -1.66979e-14 3.18055e-15 0.0 2.38542e-15 1.59028e-15 6.36111e-15 4.37326e-15 0.0625418 -9.41346 4.73724 2.58626e-16 18.9028 3.15174e-15 0.296697 -19.7894 1.60263 1.98785e-16 0.0 3.97569e-16 1.70563e-16 8.80154 -2.41384e-15 2.71231 -5.84299 7.37506 -7.65505e-16 37.7781 3.52103e-15 -6.3859 -17.5603 -6.96164 -2.48481e-16 1.59028e-15 -0.0 -1.06414e-15 -11.0719 1.51916e-16
18.4359 89.0882 -56.186 -4.37039 0.696023 172.196 -1.20145 -1.49245 -0.887926 -0.304866 3.84941 0.00439203 -0.275947 -1.11751 -5.73265 3.31828 1.11085 -2.03767 1.62062 6.97221 -0.679642 -0.883309 -6.15513 0.622957 -1.35031 -21.9563 0.0255184 90 0 0 74.1806 3.13274 -25.6288 -0.00360408 87.5224 26.7206 17.4569 -9.13044 -2.00273e-05 21.9057 5.87509 -2.35801 3.18055e-15 0.0 3.97569e-15 -3.18055e-15 0.0 2.38542e-15 -49.2139 1.11319e-14 4.77083e-15 0.0 6.36111e-15 -0.0 -6.36111e-15 -1.59028e-15 -1.59028e-15 -49.9698 4.77083e-15 6.36111e-15 0.0 1.59028e-15 -0.0 -8.82781e-32 1.59028e-15 3.18055e-15 -33.0138 1.11319e-14 2.38542e-15 -3.18055e-15 3.18055e-15 -7.95139e-16 -6.36111e-15 4.77083e-15 -2.38542e-15 25.3983 3.18055e-15 -3.18055e-15 3.18055e-15 0.0 -3.18055e-15 3.18055e-15 3.18055e-15 1.59028e-15 -90 0 0 -82.979 10.8947 42.2878 -179.941 88.9421 169.348 -15.1187 -13.3984 0.000140899 -43.1953 -10.0868 -9.33916 -9.93129e-32 -2.38542e-15 -2.38542e-15 -6.36111e-15 3.57812e-15 -7.95139e-16 -13.4059 6.95746e-16 -7.95139e-15 -1.59028e-15 2.28602e-15 -3.97569e-16 -3.18055e-15 5.31749e-15 -3.97569e-16 -87.6176 3.33958e-14 -3.65764e-14 -3.18055e-15 -1.98785e-16 7.95139e-16 -1.93108e-32 1.39149e-15 7.95139e-16 -93.4565 3.83654e-14 -3.54831e-14 -2.48282e-32 -7.95139e-16 -1.78906e-15 -1.51728e-31 -1.98785e-15 -4.37326e-15 -117.997 5.32743e-14 -2.90723e-14 4.34494e-32 7.95139e-16 -3.13086e-15 3.97569e-16 -3.97569e-16 3.21783e-15 -4.74663 -15.1946 4.77847 1.35825e-16 21.3194 -2.56065e-15 3.63153 -17.1686 5.63577 -5.96354e-16 0.0 -3.97569e-16 -4.82138e-16 8.64546 -2.41283e-15 -3.04268 -3.45504 13.0348 -3.23982e-17 27.0615 -1.78579e-15 -2.56105 -20.2399 -5.18588 7.0817e-16 0.0 1.98785e-16 3.21736e-16 -3.10495 -5.97231e-16
